<svg width="294" height="188" viewBox="0 0 294 188" fill="none" xmlns="http://www.w3.org/2000/svg">
<path d="M159.406 156.989V171H157.41L150.15 159.631V171H148.468V156.989H150.405L157.723 168.437V156.989H159.406ZM179.366 165.501V171H177.585V165.501L172.184 156.989H174.376L178.505 163.818L182.496 156.989H184.629L179.366 165.501ZM206.414 156.989H208.195V166.597C208.195 168.11 207.64 169.285 206.532 170.119C205.579 170.85 204.333 171.215 202.794 171.215C201.02 171.215 199.65 170.752 198.685 169.826C197.85 169.004 197.432 167.928 197.432 166.597V156.989H199.213V166.597C199.213 167.563 199.526 168.313 200.152 168.847C200.779 169.369 201.659 169.63 202.794 169.63C203.994 169.63 204.92 169.33 205.573 168.73C206.134 168.195 206.414 167.484 206.414 166.597V156.989ZM229.739 171H227.861L223.869 159.259V171H222.186V156.989H224.651L228.82 169.18L232.89 156.989H235.375V171H233.672V159.259L229.739 171ZM249.334 171V156.989H255.028C256.333 156.989 257.344 157.315 258.061 157.968C258.805 158.646 259.177 159.507 259.177 160.551C259.177 161.986 258.525 163.003 257.22 163.603C258.929 164.255 259.783 165.39 259.783 167.008C259.783 168.13 259.425 169.069 258.707 169.826C257.964 170.609 256.94 171 255.635 171H249.334ZM251.115 163.016H254.578C255.492 163.016 256.17 162.853 256.613 162.527C257.122 162.149 257.377 161.575 257.377 160.805C257.377 160.035 257.122 159.455 256.613 159.063C256.17 158.737 255.492 158.574 254.578 158.574H251.115V163.016ZM251.115 169.415H255.478C256.274 169.415 256.894 169.206 257.337 168.789C257.781 168.358 258.003 167.765 258.003 167.008C258.003 166.251 257.781 165.664 257.337 165.247C256.894 164.816 256.274 164.601 255.478 164.601H251.115V169.415ZM280.805 166.793H275.404L273.917 171H272.019L277.009 156.989H279.318L284.23 171H282.253L280.805 166.793ZM280.296 165.286L278.144 158.926L275.854 165.286H280.296Z" fill="#CED3DC"/>
<path d="M159.321 118.106C160.405 118.106 161.444 118.215 162.436 118.432C163.427 118.618 164.326 118.85 165.132 119.129C165.969 119.377 166.666 119.64 167.224 119.919C167.813 120.198 168.216 120.415 168.433 120.57L166.155 124.569L165.551 124.243C165.148 124.026 164.621 123.778 163.97 123.499C163.319 123.22 162.606 122.972 161.831 122.755C161.056 122.538 160.312 122.43 159.599 122.43C158.484 122.43 157.507 122.693 156.67 123.22C155.865 123.747 155.462 124.569 155.462 125.684C155.462 127.079 155.911 128.226 156.81 129.125C157.709 129.993 159.119 130.799 161.041 131.542C162.281 132.038 163.381 132.565 164.342 133.123C165.334 133.65 166.17 134.27 166.852 134.983C167.534 135.696 168.046 136.517 168.387 137.447C168.759 138.377 168.944 139.493 168.944 140.794C168.944 141.972 168.712 143.135 168.247 144.281C167.813 145.428 167.147 146.451 166.248 147.35C165.38 148.218 164.295 148.931 162.993 149.489C161.692 150.015 160.188 150.279 158.484 150.279C157.275 150.279 156.128 150.155 155.043 149.907C153.958 149.659 152.967 149.38 152.068 149.07C151.2 148.729 150.44 148.388 149.79 148.047C149.17 147.706 148.705 147.443 148.395 147.257L150.347 142.98L151.184 143.445C151.742 143.755 152.424 144.095 153.23 144.467C154.036 144.839 154.888 145.18 155.787 145.49C156.686 145.8 157.461 145.955 158.112 145.955C159.754 145.955 160.979 145.552 161.785 144.746C162.59 143.94 162.993 142.809 162.993 141.352C162.993 140.67 162.885 140.082 162.668 139.586C162.451 139.059 162.141 138.609 161.738 138.237C161.335 137.865 160.839 137.54 160.25 137.261C159.692 136.951 159.057 136.657 158.344 136.378C156.949 135.789 155.694 135.2 154.578 134.611C153.493 134.022 152.564 133.356 151.789 132.612C151.014 131.837 150.425 130.969 150.022 130.008C149.619 129.016 149.418 127.839 149.418 126.475C149.418 125.328 149.666 124.259 150.161 123.267C150.657 122.244 151.339 121.361 152.207 120.617C153.075 119.842 154.113 119.237 155.322 118.804C156.531 118.339 157.864 118.106 159.321 118.106ZM191.486 150H187.58L182.327 138.051C182.172 137.71 181.97 137.246 181.722 136.657C181.505 136.068 181.257 135.417 180.978 134.704C180.699 133.991 180.405 133.247 180.095 132.472C179.785 131.666 179.491 130.861 179.212 130.055C179.212 130.861 179.196 131.666 179.165 132.472C179.165 133.247 179.15 133.991 179.119 134.704C179.088 135.386 179.057 136.006 179.026 136.564C179.026 137.091 179.026 137.509 179.026 137.819L178.561 150H173.354L175.213 118.432H179.537L187.487 138.144C187.766 138.857 188.076 139.632 188.417 140.469C188.789 141.306 189.13 142.127 189.44 142.933C189.75 142.127 190.075 141.321 190.416 140.516C190.757 139.679 191.083 138.888 191.393 138.144L199.389 118.432H203.62L205.48 150H200.319L199.808 137.958C199.777 137.184 199.73 136.083 199.668 134.657C199.637 133.201 199.606 131.728 199.575 130.241C199.296 131.016 199.002 131.79 198.692 132.565C198.413 133.34 198.15 134.069 197.902 134.75C197.654 135.432 197.421 136.052 197.204 136.61C196.987 137.168 196.817 137.602 196.693 137.912L191.486 150ZM220.104 118.525H224.474L236.609 150H230.704L227.822 141.771H216.478L213.502 150H208.016L220.104 118.525ZM226.381 137.679C225.389 134.89 224.536 132.364 223.823 130.101C223.111 127.808 222.568 126.01 222.196 124.708C221.762 126.103 221.189 127.932 220.476 130.194C219.763 132.457 218.926 134.952 217.965 137.679H226.381ZM239.653 118.525C239.87 118.525 240.366 118.525 241.14 118.525C241.915 118.494 242.783 118.478 243.744 118.478C244.705 118.478 245.666 118.478 246.627 118.478C247.587 118.447 248.378 118.432 248.998 118.432C252.841 118.432 255.646 119.191 257.413 120.71C259.18 122.197 260.063 124.305 260.063 127.033C260.063 128.83 259.614 130.427 258.715 131.821C257.816 133.216 256.344 134.224 254.298 134.843C255.166 135.339 255.941 136.021 256.622 136.889C257.304 137.757 257.971 138.826 258.622 140.097C259.273 141.337 259.939 142.794 260.621 144.467C261.303 146.11 262.093 147.954 262.992 150H256.994C255.941 147.551 255.011 145.459 254.205 143.724C253.43 141.988 252.671 140.578 251.927 139.493C251.183 138.408 250.377 137.617 249.509 137.122C248.672 136.626 247.68 136.378 246.534 136.378H245.185V150H239.653V118.525ZM245.185 132.333H248.765C250.501 132.333 251.834 131.945 252.764 131.171C253.724 130.396 254.205 129.249 254.205 127.73C254.205 127.048 254.112 126.382 253.926 125.731C253.74 125.08 253.415 124.507 252.95 124.011C252.516 123.515 251.911 123.127 251.136 122.848C250.392 122.538 249.447 122.383 248.3 122.383H245.185V132.333ZM283.643 118.525L282.946 122.709H275.135V150H269.649V122.709H261.699V118.525H283.643Z" fill="#CED3DC"/>
<path d="M293.797 96.3896H166.599L166.599 120.807C164.601 112.976 164.088 99.275 148.103 120.807C134.169 96.0758 137.458 145.732 134.151 152.462C131.605 157.641 141.295 171.061 136.68 175C121.985 187.622 74.2066 197.819 17.1446 165.891C15.394 164.914 17.1446 167.705 17.1446 165.891L14.3331 96.3896H6.65881C0.964987 96.3896 -2.09412 90.5281 1.63693 86.76L49.3625 38.5186L50.7948 37.061L85.4528 2.00036C88.1052 -0.666788 92.8442 -0.666788 95.4966 2.00036L109.077 15.7238V15.7393L110.332 16.9953L136.68 43.6514V23.2911C136.68 17.7862 141.808 12.9946 148.103 13.1962C150.985 13.2892 153.584 14.3592 155.494 16.0184C157.492 17.7707 158.712 20.1897 158.712 22.8569V65.919L179.312 86.76C183.026 90.5281 299.508 96.3896 293.797 96.3896Z" fill="url(#paint0_linear_303_259)"/>
<defs>
<linearGradient id="paint0_linear_303_259" x1="157.793" y1="62.865" x2="9.91283" y2="107.072" gradientUnits="userSpaceOnUse">
<stop stop-color="#FFDD43"/>
<stop offset="1" stop-color="#B87D4B"/>
</linearGradient>
</defs>
</svg>
